#!OML:ASF E:\acrobat2\Project_11_07_03\Capture day 1\Session 1\Acrobat.ASF
:FULLY-SPECIFIED
:DEGREES
1207
root 6.93073 27.9266 23.2777 11.8953 -1.96301 2.97219
lowerback 7.59458 1.60827 6.15101
upperback 1.91347 2.60994 0.209021
thorax -2.00459 1.28033 -3.46982
lowerneck -6.57906 -2.71908 -4.92768
upperneck 9.92983 -3.40689 2.67878
head 4.17725 -1.71585 1.43117
rclavicle -1.98785e-014 1.59028e-014
rhumerus -36.0661 -26.213 -55.0611
rradius 39.5048
rwrist -16.0833
rhand -20.2424 -25.7508
rfingers 7.12502
rthumb 6.10577 -55.6428
lclavicle -1.98785e-014 1.59028e-014
lhumerus -24.2589 -12.5463 74.4918
lradius 38.6668
lwrist 3.90801
lhand -22.5828 -30.6378
lfingers 7.12502
lthumb 3.84599 -0.692774
rfemur -24.444 -6.79346 21.7214
rtibia 30.7649
rfoot -18.7867 -10.4548
rtoes -12.9737
lfemur -31.4817 1.00156 -18.0508
ltibia 37.8261
lfoot 5.22548 -9.86783
ltoes 32.2583
1208
root 6.91847 27.9393 23.3322 11.8715 -2.11036 3.13386
lowerback 7.67005 1.57919 5.9329
upperback 2.02224 2.55483 0.179377
thorax -1.94796 1.25763 -3.37435
lowerneck -6.55054 -2.70337 -5.1082
upperneck 10.2149 -3.41151 3.04344
head 4.2687 -1.70668 1.57148
rclavicle 1.03368e-014 1.66979e-014
rhumerus -35.9458 -26.1619 -55.4356
rradius 39.1144
rwrist -15.9379
rhand -20.4495 -25.723
rfingers 7.12502
rthumb 5.90588 -55.6207
lclavicle 1.03368e-014 1.66979e-014
lhumerus -23.6502 -12.4232 73.7764
lradius 38.14
lwrist 4.49786
lhand -23.3145 -30.2523
lfingers 7.12502
lthumb 3.13938 -0.295677
rfemur -24.9219 -6.81599 21.4482
rtibia 30.5967
rfoot -17.5224 -10.4161
rtoes -12.2086
lfemur -31.3358 0.756052 -18.2092
ltibia 39.0275
lfoot 4.64381 -10.9805
ltoes 32.5907
1209
root 6.90599 27.9561 23.3912 11.8659 -2.29546 3.37725
lowerback 7.68656 1.5095 5.55691
upperback 2.11126 2.43016 0.129282
thorax -1.89168 1.19998 -3.20401
lowerneck -6.58091 -2.60149 -5.24526
upperneck 10.6027 -3.30386 3.39309
head 4.3954 -1.64103 1.7065
rclavicle 2.50469e-014 1.59028e-015
rhumerus -35.8142 -26.0088 -55.9501
rradius 38.7929
rwrist -15.8232
rhand -20.5339 -25.7421
rfingers 7.12502
rthumb 5.82435 -55.6421
lclavicle 2.50469e-014 1.59028e-015
lhumerus -23.1142 -12.0977 73.0041
lradius 37.5809
lwrist 5.08191
lhand -24.0822 -29.8734
lfingers 7.12502
lthumb 2.39801 0.092852
rfemur -25.3174 -6.79545 21.0409
rtibia 30.206
rfoot -16.1522 -10.4012
rtoes -11.4051
lfemur -30.9969 0.41841 -18.4745
ltibia 39.8245
lfoot 4.18198 -11.8994
ltoes 33.1313
1210
root 6.8943 27.9762 23.4543 11.8544 -2.50835 3.60423
lowerback 7.67375 1.4053 5.14745
upperback 2.18287 2.25656 0.088355
thorax -1.84205 1.11706 -3.00053
lowerneck -6.59935 -2.44248 -5.42093
upperneck 11.0328 -3.12362 3.78611
head 4.53036 -1.53871 1.86675
rclavicle 3.06128e-014 1.35174e-014
rhumerus -35.7085 -25.7897 -56.547
rradius 38.5447
rwrist -15.6888
rhand -20.4495 -25.8012
rfingers 7.12502
rthumb 5.90586 -55.6989
lclavicle 3.06128e-014 1.35174e-014
lhumerus -22.657 -11.5971 72.2054
lradius 36.985
lwrist 5.61274
lhand -24.8083 -29.4833
lfingers 7.12502
lthumb 1.69674 0.489716
rfemur -25.5789 -6.72074 20.6234
rtibia 29.5822
rfoot -14.7454 -10.4203
rtoes -10.7014
lfemur -30.4558 0.0230787 -18.7421
ltibia 40.2287
lfoot 3.75504 -12.6392
ltoes 33.7366
1211
root 6.88266 27.9993 23.5214 11.8432 -2.75581 3.8348
lowerback 7.63102 1.29302 4.69908
upperback 2.2318 2.06895 0.0502445
thorax -1.79991 1.02618 -2.77053
lowerneck -6.55518 -2.25398 -5.73173
upperneck 11.4602 -2.90971 4.30828
head 4.65493 -1.41846 2.0932
rclavicle 1.55052e-014 -2.38542e-015
rhumerus -35.6784 -25.5626 -57.1571
rradius 38.367
rwrist -15.5378
rhand -20.2385 -25.8643
rfingers 7.12502
rthumb 6.10952 -55.7562
lclavicle 1.55052e-014 -2.38542e-015
lhumerus -22.2727 -11.011 71.4182
lradius 36.3644
lwrist 6.07091
lhand -25.4222 -29.0484
lfingers 7.12502
lthumb 1.10384 0.928493
rfemur -25.7162 -6.55948 20.1673
rtibia 28.7159
rfoot -13.3205 -10.5268
rtoes -10.1052
lfemur -29.7229 -0.429143 -19.0456
ltibia 40.2272
lfoot 3.26289 -13.224
ltoes 34.1291
1212
root 6.87062 28.0251 23.5924 11.8278 -3.02228 4.0307
lowerback 7.56669 1.19163 4.27882
upperback 2.26071 1.89824 0.0197688
thorax -1.76187 0.942899 -2.54953
lowerneck -6.43304 -2.06409 -6.20563
upperneck 11.8553 -2.701 4.98236
head 4.75869 -1.29977 2.39565
rclavicle 7.55382e-015 2.38542e-015
rhumerus -35.7552 -25.39 -57.7279
rradius 38.2483
rwrist -15.3848
rhand -19.9903 -25.8445
rfingers 7.12502
rthumb 6.34915 -55.7293
lclavicle 7.55382e-015 2.38542e-015
lhumerus -21.94 -10.4394 70.6696
lradius 35.7382
lwrist 6.46621
lhand -25.8645 -28.5313
lfingers 7.12502
lthumb 0.676623 1.44733
rfemur -25.7352 -6.30715 19.7194
rtibia 27.6357
rfoot -11.8622 -10.7417
rtoes -9.48293
lfemur -28.8238 -0.902078 -19.35
ltibia 39.8603
lfoot 2.64981 -13.7195
ltoes 34.0488
1213
root 6.85843 28.0526 23.6672 11.7868 -3.28786 4.07367
lowerback 7.50882 1.11683 4.04288
upperback 2.28099 1.77829 0.0216694
thorax -1.72557 0.884338 -2.40318
lowerneck -6.24148 -1.89912 -6.81577
upperneck 12.2033 -2.53143 5.76613
head 4.8387 -1.20104 2.75464
rclavicle 1.98785e-015 1.98785e-014
rhumerus -35.9643 -25.3136 -58.2205
rradius 38.1872
rwrist -15.2639
rhand -19.7548 -25.7827
rfingers 7.12502
rthumb 6.57651 -55.6606
lclavicle 1.98785e-015 1.98785e-014
lhumerus -21.6355 -9.9572 69.981
lradius 35.1296
lwrist 6.79721
lhand -26.0757 -27.9049
lfingers 7.12502
lthumb 0.472604 2.07431
rfemur -25.6135 -5.94541 19.4194
rtibia 26.3617
rfoot -10.35 -11.0765
rtoes -8.87863
lfemur -27.7674 -1.34349 -19.5171
ltibia 39.172
lfoot 1.95019 -14.1641
ltoes 33.5647
1214
root 6.84598 28.0812 23.7452 11.7322 -3.56658 4.02909
lowerback 7.44744 1.07561 3.92642
upperback 2.29248 1.71221 0.034823
thorax -1.68841 0.85233 -2.3169
lowerneck -6.02012 -1.76233 -7.45065
upperneck 12.5193 -2.40194 6.54237
head 4.90387 -1.12463 3.11493
rclavicle -2.18663e-014 -2.3059e-014
rhumerus -36.2965 -25.3244 -58.6388
rradius 38.1799
rwrist -15.2052
rhand -19.5848 -25.7272
rfingers 7.12502
rthumb 6.74065 -55.5999
lclavicle -2.18663e-014 -2.3059e-014
lhumerus -21.3596 -9.58981 69.3525
lradius 34.5604
lwrist 7.07902
lhand -26.0996 -27.1817
lfingers 7.12502
lthumb 0.449562 2.79758
rfemur -25.4024 -5.48449 19.1845
rtibia 24.9567
rfoot -8.79306 -11.5284
rtoes -8.3784
lfemur -26.6071 -1.72873 -19.629
ltibia 38.2139
lfoot 1.24854 -14.5693
ltoes 32.9085
1215
root 6.83339 28.1092 23.8252 11.6798 -3.85521 3.96123
lowerback 7.36248 1.04869 3.84794
upperback 2.29634 1.66702 0.0419431
thorax -1.643 0.830758 -2.25951
lowerneck -5.82477 -1.63838 -7.99045
upperneck 12.8312 -2.28909 7.21228
head 4.96906 -1.05864 3.42669
rclavicle -1.07344e-014 -2.06736e-014
rhumerus -36.6901 -25.3716 -59.0341
rradius 38.2055
rwrist -15.2304
rhand -19.5498 -25.7029
rfingers 7.12502
rthumb 6.77443 -55.5745
lclavicle -1.07344e-014 -2.06736e-014
lhumerus -21.1234 -9.31011 68.7546
lradius 34.0426
lwrist 7.34212
lhand -26.0541 -26.3988
lfingers 7.12502
lthumb 0.493446 3.5804
rfemur -25.1657 -4.97106 18.9426
rtibia 23.5177
rfoot -7.24849 -12.0612
rtoes -8.01429
lfemur -25.4029 -2.04836 -19.7601
ltibia 37.0431
lfoot 0.605411 -14.9152
ltoes 32.3464
1216
root 6.82078 28.1354 23.9065 11.6356 -4.13359 3.9009
lowerback 7.24462 1.01826 3.76738
upperback 2.29472 1.61575 0.040921
thorax -1.58506 0.806328 -2.20824
lowerneck -5.69756 -1.52281 -8.36335
upperneck 13.1652 -2.18234 7.70922
head 5.04831 -0.997457 3.65705
rclavicle -9.14409e-015 1.35174e-014
rhumerus -37.1051 -25.4285 -59.4273
rradius 38.254
rwrist -15.3316
rhand -19.6773 -25.7157
rfingers 7.12502
rthumb 6.65131 -55.5913
lclavicle -9.14409e-015 1.35174e-014
lhumerus -20.9399 -9.0861 68.1761
lradius 33.6023
lwrist 7.59692
lhand -25.9929 -25.5815
lfingers 7.12502
lthumb 0.55263 4.39749
rfemur -24.9412 -4.47172 18.6686
rtibia 22.1288
rfoot -5.79807 -12.6204
rtoes -7.84508
lfemur -24.1954 -2.30734 -19.939
ltibia 35.7078
lfoot 0.00594501 -15.1649
ltoes 32.084
1217
root 6.80816 28.1587 23.9881 11.5924 -4.3918 3.85298
lowerback 7.10078 0.977907 3.66999
upperback 2.29412 1.54933 0.04212
thorax -1.51302 0.774573 -2.14357
lowerneck -5.66329 -1.41582 -8.54885
upperneck 13.5355 -2.07652 7.99994
head 5.15046 -0.938628 3.79172
rclavicle -7.95139e-016 5.56597e-015
rhumerus -37.518 -25.4895 -59.8088
rradius 38.3176
rwrist -15.477
rhand -19.9222 -25.7525
rfingers 7.12502
rthumb 6.41496 -55.6354
lclavicle -7.95139e-016 5.56597e-015
lhumerus -20.8081 -8.87547 67.6255
lradius 33.2614
lwrist 7.83134
lhand -25.932 -24.7379
lfingers 7.12502
lthumb 0.611434 5.24095
rfemur -24.739 -4.01601 18.3616
rtibia 20.8419
rfoot -4.54348 -13.1596
rtoes -7.89244
lfemur -22.9971 -2.5117 -20.1641
ltibia 34.2436
lfoot -0.641583 -15.2904
ltoes 32.091
1218
root 6.79577 28.1782 24.0695 11.5404 -4.63073 3.8142
lowerback 6.94013 0.923851 3.55023
upperback 2.3028 1.46286 0.0544651
thorax -1.42397 0.73313 -2.05306
lowerneck -5.72221 -1.3188 -8.63404
upperneck 13.9349 -1.97445 8.17297
head 5.27593 -0.882113 3.8728
rclavicle -1.74931e-014 -1.66979e-014
rhumerus -37.9013 -25.5358 -60.1771
rradius 38.3921
rwrist -15.6615
rhand -20.2372 -25.8281
rfingers 7.12502
rthumb 6.11081 -55.7199
lclavicle -1.74931e-014 -1.66979e-014
lhumerus -20.7196 -8.65523 67.1032
lradius 33.0226
lwrist 8.04559
lhand -25.8833 -23.8859
lfingers 7.12502
lthumb 0.658439 6.09281
rfemur -24.5668 -3.63426 18.0366
rtibia 19.7173
rfoot -3.61446 -13.6079
rtoes -8.2799
lfemur -21.8238 -2.65562 -20.4255
ltibia 32.6909
lfoot -1.48085 -15.2874
ltoes 31.9059
1219
root 6.78409 28.1929 24.1501 11.4775 -4.85007 3.79183
lowerback 6.77206 0.855085 3.40431
upperback 2.31751 1.35536 0.0768007
thorax -1.32631 0.681213 -1.9362
lowerneck -5.85338 -1.23218 -8.71996
upperneck 14.3642 -1.88039 8.32695
head 5.42378 -0.829304 3.94857
rclavicle 3.57812e-015 -2.06736e-014
rhumerus -38.2522 -25.5491 -60.5292
rradius 38.4806
rwrist -15.8946
rhand -20.5965 -25.9488
rfingers 7.12502
rthumb 5.76388 -55.8504
lclavicle 3.57812e-015 -2.06736e-014
lhumerus -20.6872 -8.46281 66.6105
lradius 32.8901
lwrist 8.28318
lhand -25.8597 -23.0893
lfingers 7.12502
lthumb 0.68125 6.88939
rfemur -24.4363 -3.34898 17.6858
rtibia 18.7653
rfoot -3.07956 -13.9265
rtoes -9.13627
lfemur -20.6716 -2.78407 -20.7312
ltibia 31.0312
lfoot -2.65846 -15.1248
ltoes 30.9201
1220
root 6.77373 28.2022 24.2297 11.4033 -5.0493 3.78727
lowerback 6.60401 0.778423 3.2443
upperback 2.33245 1.23708 0.102221
thorax -1.22877 0.623687 -1.80801
lowerneck -6.0402 -1.16285 -8.81987
upperneck 14.8265 -1.80554 8.47687
head 5.59358 -0.785734 4.02558
rclavicle -5.1684e-015 1.51076e-014
rhumerus -38.5849 -25.5414 -60.8518
rradius 38.573
rwrist -16.1608
rhand -20.9491 -26.0789
rfingers 7.12502
rthumb 5.42348 -55.9894
lclavicle -5.1684e-015 1.51076e-014
lhumerus -20.7064 -8.3478 66.1506
lradius 32.8489
lwrist 8.57419
lhand -25.8526 -22.4118
lfingers 7.12502
lthumb 0.688063 7.56685
rfemur -24.3635 -3.18772 17.3131
rtibia 18.0041
rfoot -2.9492 -14.0831
rtoes -10.4315
lfemur -19.5596 -2.90745 -21.0857
ltibia 29.2844
lfoot -4.14899 -14.8088
ltoes 29.0993
1221
root 6.76537 28.2055 24.3081 11.3118 -5.22947 3.79354
lowerback 6.44879 0.705574 3.09903
upperback 2.34581 1.12571 0.120534
thorax -1.13837 0.569339 -1.69672
lowerneck -6.25601 -1.12118 -8.89718
upperneck 15.3017 -1.76541 8.59714
head 5.77585 -0.759142 4.08811
rclavicle 1.11319e-014 1.43125e-014
rhumerus -38.9242 -25.5447 -61.1327
rradius 38.6662
rwrist -16.4407
rhand -21.2413 -26.1935
rfingers 7.12502
rthumb 5.14137 -56.1111
lclavicle 1.11319e-014 1.43125e-014
lhumerus -20.7535 -8.36655 65.7229
lradius 32.8749
lwrist 8.93197
lhand -25.8135 -21.8753
lfingers 7.12502
lthumb 0.725855 8.10322
rfemur -24.3531 -3.15956 16.9314
rtibia 17.4454
rfoot -3.19176 -14.061
rtoes -11.9954
lfemur -18.5104 -3.02549 -21.4805
ltibia 27.487
lfoot -5.78042 -14.3759
ltoes 27.0624
